<?xml version="1.0" standalone="no"?>
<!DOCTYPE svg PUBLIC "-//W3C//DTD SVG 20010904//EN"
 "http://www.w3.org/TR/2001/REC-SVG-20010904/DTD/svg10.dtd">
<svg version="1.0" xmlns="http://www.w3.org/2000/svg"
 width="370.000000pt" height="136.000000pt" viewBox="0 0 370.000000 136.000000"
 preserveAspectRatio="xMidYMid meet">

<g transform="translate(0.000000,136.000000) scale(0.100000,-0.100000)"
fill="#000000" stroke="none">
<path d="M1873 1306 c-75 -67 -100 -152 -69 -228 23 -54 96 -144 201 -248 106
-105 136 -146 144 -199 l6 -36 23 39 c40 68 65 156 58 210 -10 86 -50 150
-169 270 -125 127 -138 144 -146 194 l-6 36 -42 -38z"/>
<path d="M1020 800 c0 -183 1 -190 20 -190 19 0 20 7 20 135 0 74 3 135 7 135
4 0 67 -62 139 -137 l133 -138 0 188 c1 181 0 187 -19 187 -19 0 -20 -7 -20
-142 l-1 -143 -20 25 c-12 14 -75 80 -140 147 l-119 123 0 -190z"/>
<path d="M10 795 l0 -185 63 0 c132 0 193 101 105 175 -28 24 -29 27 -14 44
20 22 21 80 1 108 -14 21 -81 43 -129 43 l-26 0 0 -185z m113 133 c9 -7 19
-25 22 -40 9 -34 -31 -78 -70 -78 -24 0 -25 2 -25 65 0 65 0 65 28 65 16 0 36
-6 45 -12z m11 -158 c64 -24 56 -101 -11 -119 -72 -20 -73 -19 -73 59 l0 70
29 0 c16 0 41 -4 55 -10z"/>
<path d="M525 963 c-46 -24 -66 -45 -86 -88 -37 -80 -20 -166 44 -222 94 -82
243 -59 297 47 24 47 27 138 6 178 -19 36 -65 78 -99 91 -41 16 -127 13 -162
-6z m176 -44 c40 -28 59 -69 59 -126 0 -116 -112 -186 -216 -137 -61 29 -97
109 -80 178 8 34 54 86 91 102 39 18 108 10 146 -17z"/>
<path d="M2386 943 c8 -21 43 -104 77 -185 33 -82 64 -148 68 -148 4 0 12 12
17 28 6 15 40 98 76 185 63 151 64 157 42 157 -20 0 -29 -17 -76 -135 -29 -74
-56 -135 -60 -135 -3 0 -31 61 -60 135 -48 118 -57 135 -77 135 -23 0 -23 0
-7 -37z"/>
<path d="M3050 795 c0 -178 1 -185 20 -185 19 0 20 7 20 185 0 178 -1 185 -20
185 -19 0 -20 -7 -20 -185z"/>
<path d="M3500 795 l0 -185 95 0 c88 0 95 1 95 20 0 18 -7 20 -75 20 l-75 0 0
70 0 70 75 0 c68 0 75 2 75 20 0 18 -7 20 -75 20 l-75 0 0 55 0 55 75 0 c68 0
75 2 75 20 0 19 -7 20 -95 20 l-95 0 0 -185z"/>
</g>
</svg>
